# xmcd
#
# Track frame offsets: 
#        150
#        17587
#        45275
#        67800
#        97627
#        124617
#        155770
#        181130
#        202162
#        224210
#
# Disc length: 3452 seconds
#
# Revision: 0
# Processed by: cddbd v1.4b42PL1 Copyright (c) Steve Scherf et al.
# Submitted via: ExactAudioCopy v0.90a11
#
DISCID=810d7a0a
DTITLE=Carey Bell - Brought Up The Hard Way
DYEAR=1900
DGENRE=
TTITLE0=Strange Woman
TTITLE1=Gladys Shuffle
TTITLE2=Nineteen Years Old
TTITLE3=I'm Going Upstairs
TTITLE4=Brought Up The Hard Way
TTITLE5=Its Alright In The Dark
TTITLE6=Its So Easy To Love You
TTITLE7=85%
TTITLE8=Locked Up So Long
TTITLE9=Second Hand Man
EXTD=
EXTT0=
EXTT1=
EXTT2=
EXTT3=
EXTT4=
EXTT5=
EXTT6=
EXTT7=
EXTT8=
EXTT9=
PLAYORDER=
